<svg xmlns="http://www.w3.org/2000/svg" viewBox="0 0 48 48" width="48" height="48">
  <defs>
    <linearGradient id="g" x1="0" y1="0" x2="1" y2="1">
      <stop offset="0" stop-color="#f4c64a"/><stop offset="1" stop-color="#f08b3a"/>
    </linearGradient>
  </defs>
  <rect width="48" height="48" rx="11" fill="#0e1116"/>
  <path fill="url(#g)" d="M13 7h22a2 2 0 0 1 0 4h-1c-.5 5.4-3.3 8.4-6.8 10.8 3.5 2.4 6.3 5.4 6.8 10.8h1a2 2 0 0 1 0 4H13a2 2 0 0 1 0-4h1c.5-5.4 3.3-8.4 6.8-10.8C17.3 19.4 14.5 16.4 14 11h-1a2 2 0 0 1 0-4z"/>
  <path fill="#0e1116" d="M24 24c-2.3 1.5-4.3 3.4-4.8 6.2h9.6c-.5-2.8-2.5-4.7-4.8-6.2z"/>
  <path fill="#0e1116" d="M28.8 13.4c-1.3 1.8-3 2.5-4.8 3.5-1.8-1-3.5-1.7-4.8-3.5z"/>
</svg>
